<svg height="512pt" viewBox="0 -77 512.00213 512" width="512pt" xmlns="http://www.w3.org/2000/svg"><path d="m501.453125 56.09375c-5.902344-21.933594-23.195313-39.222656-45.125-45.128906-40.066406-10.964844-200.332031-10.964844-200.332031-10.964844s-160.261719 0-200.328125 10.546875c-21.507813 5.902344-39.222657 23.617187-45.125 45.546875-10.542969 40.0625-10.542969 123.148438-10.542969 123.148438s0 83.503906 10.542969 123.148437c5.90625 21.929687 23.195312 39.222656 45.128906 45.128906 40.484375 10.964844 200.328125 10.964844 200.328125 10.964844s160.261719 0 200.328125-10.546875c21.933594-5.902344 39.222656-23.195312 45.128906-45.125 10.542969-40.066406 10.542969-123.148438 10.542969-123.148438s.421875-83.507812-10.546875-123.570312zm0 0" fill="#f00"/><path d="m204.96875 256 133.269531-76.757812-133.269531-76.757813zm0 0" fill="#fff"/></svg>

<img src='data:image/svg+xml;utf8,<svg xmlns="http://www.w3.org/2000/svg" x="0px" y="0px" width="48" height="48" viewBox="0 0 172 172" style=" fill:#000000;"><g fill="none" fill-rule="nonzero" stroke="none" stroke-width="1" stroke-linecap="butt" stroke-linejoin="miter" stroke-miterlimit="10" stroke-dasharray="" stroke-dashoffset="0" font-family="none" font-weight="none" font-size="none" text-anchor="none" style="mix-blend-mode: normal"><path d="M0,172v-172h172v172z" fill="none"></path><g fill="#e74c3c"><path d="M44.0778,14.33333c-0.7095,0 -1.22572,0.68033 -1.03581,1.36475l9.56722,34.53157v15.43213c0,0.989 0.80267,1.79167 1.79167,1.79167h5.03206c0.989,0 1.79167,-0.80267 1.79167,-1.79167v-15.43213l9.6932,-34.53157c0.1935,-0.68442 -0.32273,-1.36475 -1.03581,-1.36475h-5.81592c-0.84208,0 -1.56709,0.56857 -1.74268,1.39274c-1.12158,5.21733 -5.0156,23.39458 -5.27002,25.12533h-0.25895c-0.35833,-2.408 -4.07229,-19.99416 -5.15804,-25.11833c-0.17558,-0.82775 -0.89701,-1.39974 -1.74268,-1.39974zM81.6888,27.88281c-2.92042,0 -5.27702,0.57809 -7.06868,1.74268c-1.79883,1.15742 -3.1156,3.00614 -3.96126,5.53597c-0.84208,2.537 -1.26677,5.88955 -1.26677,10.06413v5.63395c0,4.13158 0.37104,7.44774 1.11279,9.93815c0.73817,2.49042 1.98506,4.32906 3.73731,5.50797c1.75583,1.1825 4.16899,1.7705 7.25065,1.77767c2.99925,0 5.38301,-0.57809 7.13167,-1.74268c1.74867,-1.16458 3.02271,-2.99606 3.80029,-5.50798c0.77758,-2.5155 1.16878,-5.83439 1.16878,-9.97314v-5.63395c0,-4.17817 -0.40111,-7.52064 -1.20378,-10.03613c-0.80267,-2.50833 -2.05896,-4.35705 -3.7933,-5.53597c-1.73075,-1.1825 -4.03746,-1.77067 -6.90771,-1.77067zM99.92041,28.66667c-0.989,0 -1.79167,0.80267 -1.79167,1.79167v27.16894c0,3.58692 0.61874,6.23836 1.84066,7.92253c1.2255,1.68417 3.12752,2.52653 5.70394,2.52653c3.71592,0 6.50728,-1.79508 8.36345,-5.382h0.18896l0.5179,3.2404c0.13975,0.87075 0.88917,1.51172 1.77067,1.51172h3.52734c0.989,0 1.79167,-0.80267 1.79167,-1.79167v-35.19645c0,-0.989 -0.80267,-1.79167 -1.79167,-1.79167h-5.15804c-0.989,0 -1.79167,0.80267 -1.79167,1.79167v29.0096c-0.33683,0.72025 -0.85138,1.30484 -1.55371,1.77067c-0.70233,0.46942 -1.42034,0.69987 -2.18359,0.69987c-0.89225,0 -1.52723,-0.36404 -1.91064,-1.1058c-0.38342,-0.74175 -0.57389,-1.96798 -0.57389,-3.70231v-26.67204c0,-0.989 -0.80267,-1.79167 -1.79167,-1.79167zM81.49284,33.90169c1.22192,0 2.08835,0.63123 2.56852,1.91764c0.48733,1.28283 0.72786,3.32203 0.72786,6.10986v12.09375c0,2.87383 -0.2407,4.94293 -0.72086,6.20785c-0.48375,1.26492 -1.35019,1.90006 -2.56852,1.90365c-1.22192,0 -2.0677,-0.63873 -2.53353,-1.90365c-0.46942,-1.26492 -0.69287,-3.34118 -0.69287,-6.20785v-12.09375c0,-2.78425 0.2477,-4.81986 0.72786,-6.10986c0.48017,-1.27925 1.30904,-1.91764 2.49154,-1.91764zM41.20833,75.25c-10.86825,0 -19.70833,8.84367 -19.70833,19.70833v43c0,10.86467 8.84008,19.70833 19.70833,19.70833h89.58333c10.86825,0 19.70833,-8.84367 19.70833,-19.70833v-43c0,-10.86467 -8.84008,-19.70833 -19.70833,-19.70833zM44.79167,93.16667h17.91667c0.989,0 1.79167,0.80267 1.79167,1.79167v3.58333c0,0.989 -0.80267,1.79167 -1.79167,1.79167h-5.375v35.77035c0,0.989 -0.80267,1.79167 -1.79167,1.79167h-3.58333c-0.989,0 -1.79167,-0.80267 -1.79167,-1.79167v-35.77035h-5.375c-0.989,0 -1.79167,-0.80267 -1.79167,-1.79167v-3.58333c0,-0.989 0.80267,-1.79167 1.79167,-1.79167zM87.79167,93.16667h3.58333c0.989,0 1.79167,0.80267 1.79167,1.79167v14.73926h0.06299c0.61633,-1.204 1.49918,-2.17329 2.63151,-2.91146c1.13592,-0.74175 2.3524,-1.1058 3.66032,-1.10579c1.68416,0 3.00809,0.4445 3.96126,1.33675c0.95675,0.89225 1.6592,2.33986 2.08561,4.3322c0.42641,1.9995 0.64388,4.76712 0.64388,8.30745v4.99007h0.007c0,4.7085 -0.57876,8.17498 -1.71468,10.39307c-1.13592,2.21808 -2.90059,3.32438 -5.30501,3.32438c-1.34017,0 -2.56365,-0.31449 -3.66732,-0.93082c-1.10008,-0.61633 -1.92229,-1.4587 -2.47054,-2.52653h-0.15397l-0.39193,1.6167c-0.1935,0.80625 -0.91493,1.37175 -1.74268,1.37175h-2.98144c-0.989,0 -1.79167,-0.80267 -1.79167,-1.79167v-41.14535c0,-0.989 0.80267,-1.79167 1.79167,-1.79167zM119.04085,105.69434c2.43667,0 4.31204,0.4445 5.61995,1.33675c1.30075,0.89583 2.22357,2.29339 2.75749,4.17822c0.53033,1.892 0.79785,4.50604 0.79785,7.83854v3.63232c0,0.989 -0.80267,1.79167 -1.79167,1.79167h-10.10612v1.5957c0,2.03175 0.06013,3.55265 0.18197,4.56315c0.12542,1.0105 0.36561,1.75992 0.74186,2.21859c0.37983,0.46583 0.96134,0.69287 1.74967,0.69287c1.06425,0 1.89357,-0.38594 2.32357,-1.23877c0.23292,-0.46225 0.35693,-1.30355 0.35693,-1.97363c0,-0.989 0.82367,-1.79167 1.81266,-1.79167h2.72249c0.989,0 1.79866,0.80267 1.79866,1.79167c-0.11108,2.59433 -0.91022,4.56707 -2.38655,5.8929c-1.59817,1.44767 -3.85774,2.1626 -6.78174,2.1626c-3.5045,0 -5.96121,-1.10322 -7.37662,-3.30339c-1.41542,-2.20017 -2.10661,-5.59594 -2.10661,-10.2041v-5.52197c0,-4.74075 0.73218,-8.20723 2.19059,-10.39307c1.45842,-2.18583 3.95886,-3.26839 7.49561,-3.26839zM77.09066,106.28223h3.53434c0.989,0 1.79167,0.80267 1.79167,1.79167v28.02979c0,0.989 -0.80267,1.79167 -1.79167,1.79167h-2.26758c-0.8815,0 -1.63092,-0.63755 -1.77067,-1.50472l-0.37093,-2.35856h-0.16097c-1.51217,2.92758 -3.7784,4.38818 -6.80273,4.38818c-2.09983,0 -3.64039,-0.68503 -4.64014,-2.06462c-0.99975,-1.37242 -1.49772,-3.52897 -1.49772,-6.4458v-21.82194c0,-0.989 0.80267,-1.79166 1.79167,-1.79167h3.54134c0.989,0 1.79167,0.80267 1.79167,1.79167v21.40902c0,1.40467 0.15375,2.42161 0.46192,3.01644c0.31175,0.60558 0.82271,0.90283 1.55371,0.90283c0.61634,0 1.2115,-0.19048 1.77767,-0.57389c0.57333,-0.37625 0.98368,-0.86465 1.26677,-1.44873v-23.31966c0,-0.989 0.80267,-1.79167 1.79167,-1.79167zM118.88688,110.50244c-0.75608,0 -1.32477,0.22054 -1.68669,0.66488c-0.36192,0.44792 -0.60278,1.17992 -0.71387,2.19759c-0.12541,1.0105 -0.18197,2.55531 -0.18197,4.61214v2.26758h5.20703v-2.26758c0,-2.03175 -0.07038,-3.56581 -0.20296,-4.61214c-0.13617,-1.05708 -0.37995,-1.79559 -0.74186,-2.22559c-0.36192,-0.42642 -0.91644,-0.63688 -1.67969,-0.63688zM96.31608,110.7334c-0.68442,0 -1.31956,0.26701 -1.90365,0.81885c-0.58408,0.55183 -1.00568,1.26077 -1.24577,2.11361v17.93766c0.31175,0.55184 0.72327,0.96286 1.21777,1.23877c0.49808,0.26875 1.03245,0.41292 1.6237,0.41292c0.75608,0 1.35775,-0.26702 1.80566,-0.81885c0.44792,-0.55183 0.76207,-1.47756 0.94482,-2.78548c0.18992,-1.30075 0.28695,-3.10949 0.28695,-5.40999v-4.07324c0,-2.4725 -0.07329,-4.3776 -0.23096,-5.72493c-0.1505,-1.33658 -0.43185,-2.29988 -0.81885,-2.86247c-0.39417,-0.56258 -0.94869,-0.84684 -1.67969,-0.84684z"></path></g></g></svg>

